<svg width="482" height="87" viewBox="0 0 482 87" fill="none" xmlns="http://www.w3.org/2000/svg">
<rect y="25" width="96" height="50" rx="25" fill="#11FAAC"/>
<circle cx="75" cy="38" r="38" fill="#10B77F"/>
<path d="M139.368 47.664C139.368 43.312 140.371 39.408 142.376 35.952C144.424 32.496 147.176 29.808 150.632 27.888C154.131 25.9253 157.949 24.944 162.088 24.944C166.824 24.944 171.027 26.1173 174.696 28.464C178.408 30.768 181.096 34.0533 182.76 38.32H173.992C172.84 35.9733 171.24 34.224 169.192 33.072C167.144 31.92 164.776 31.344 162.088 31.344C159.144 31.344 156.52 32.0053 154.216 33.328C151.912 34.6507 150.099 36.5493 148.776 39.024C147.496 41.4987 146.856 44.3787 146.856 47.664C146.856 50.9493 147.496 53.8293 148.776 56.304C150.099 58.7787 151.912 60.6987 154.216 62.064C156.52 63.3867 159.144 64.048 162.088 64.048C164.776 64.048 167.144 63.472 169.192 62.32C171.24 61.168 172.84 59.4187 173.992 57.072H182.76C181.096 61.3387 178.408 64.624 174.696 66.928C171.027 69.232 166.824 70.384 162.088 70.384C157.907 70.384 154.088 69.424 150.632 67.504C147.176 65.5413 144.424 62.832 142.376 59.376C140.371 55.92 139.368 52.016 139.368 47.664ZM209.54 34.16C212.228 34.16 214.617 34.736 216.708 35.888C218.841 37.04 220.505 38.7467 221.7 41.008C222.937 43.2693 223.556 46 223.556 49.2V70H216.324V50.288C216.324 47.1307 215.535 44.72 213.956 43.056C212.377 41.3493 210.223 40.496 207.492 40.496C204.761 40.496 202.585 41.3493 200.964 43.056C199.385 44.72 198.596 47.1307 198.596 50.288V70H191.3V22.64H198.596V38.832C199.833 37.3387 201.391 36.1867 203.268 35.376C205.188 34.5653 207.279 34.16 209.54 34.16ZM230.431 52.208C230.431 48.6667 231.156 45.5307 232.607 42.8C234.1 40.0693 236.105 37.9573 238.623 36.464C241.183 34.928 243.999 34.16 247.071 34.16C249.844 34.16 252.255 34.7147 254.303 35.824C256.393 36.8907 258.057 38.2347 259.295 39.856V34.736H266.655V70H259.295V64.752C258.057 66.416 256.372 67.8027 254.239 68.912C252.105 70.0213 249.673 70.576 246.943 70.576C243.913 70.576 241.14 69.808 238.623 68.272C236.105 66.6933 234.1 64.5173 232.607 61.744C231.156 58.928 230.431 55.7493 230.431 52.208ZM259.295 52.336C259.295 49.904 258.783 47.792 257.759 46C256.777 44.208 255.476 42.8427 253.855 41.904C252.233 40.9653 250.484 40.496 248.607 40.496C246.729 40.496 244.98 40.9653 243.359 41.904C241.737 42.8 240.415 44.144 239.391 45.936C238.409 47.6853 237.919 49.776 237.919 52.208C237.919 54.64 238.409 56.7733 239.391 58.608C240.415 60.4427 241.737 61.8507 243.359 62.832C245.023 63.7707 246.772 64.24 248.607 64.24C250.484 64.24 252.233 63.7707 253.855 62.832C255.476 61.8933 256.777 60.528 257.759 58.736C258.783 56.9013 259.295 54.768 259.295 52.336ZM284.75 40.688V60.208C284.75 61.5307 285.048 62.4907 285.646 63.088C286.286 63.6427 287.352 63.92 288.846 63.92H293.326V70H287.566C284.28 70 281.763 69.232 280.014 67.696C278.264 66.16 277.39 63.664 277.39 60.208V40.688H273.23V34.736H277.39V25.968H284.75V34.736H293.326V40.688H284.75ZM297.618 52.208C297.618 48.6667 298.343 45.5307 299.794 42.8C301.287 40.0693 303.293 37.9573 305.81 36.464C308.37 34.928 311.186 34.16 314.258 34.16C317.031 34.16 319.442 34.7147 321.49 35.824C323.581 36.8907 325.245 38.2347 326.482 39.856V34.736H333.842V70H326.482V64.752C325.245 66.416 323.559 67.8027 321.426 68.912C319.293 70.0213 316.861 70.576 314.13 70.576C311.101 70.576 308.327 69.808 305.81 68.272C303.293 66.6933 301.287 64.5173 299.794 61.744C298.343 58.928 297.618 55.7493 297.618 52.208ZM326.482 52.336C326.482 49.904 325.97 47.792 324.946 46C323.965 44.208 322.663 42.8427 321.042 41.904C319.421 40.9653 317.671 40.496 315.794 40.496C313.917 40.496 312.167 40.9653 310.546 41.904C308.925 42.8 307.602 44.144 306.578 45.936C305.597 47.6853 305.106 49.776 305.106 52.208C305.106 54.64 305.597 56.7733 306.578 58.608C307.602 60.4427 308.925 61.8507 310.546 62.832C312.21 63.7707 313.959 64.24 315.794 64.24C317.671 64.24 319.421 63.7707 321.042 62.832C322.663 61.8933 323.965 60.528 324.946 58.736C325.97 56.9013 326.482 54.768 326.482 52.336ZM350.721 39.92C351.958 38.2987 353.644 36.9333 355.777 35.824C357.91 34.7147 360.321 34.16 363.009 34.16C366.081 34.16 368.876 34.928 371.393 36.464C373.953 37.9573 375.958 40.0693 377.409 42.8C378.86 45.5307 379.585 48.6667 379.585 52.208C379.585 55.7493 378.86 58.928 377.409 61.744C375.958 64.5173 373.953 66.6933 371.393 68.272C368.876 69.808 366.081 70.576 363.009 70.576C360.321 70.576 357.932 70.0427 355.841 68.976C353.75 67.8667 352.044 66.5013 350.721 64.88V86.768H343.425V34.736H350.721V39.92ZM372.161 52.208C372.161 49.776 371.649 47.6853 370.625 45.936C369.644 44.144 368.321 42.8 366.657 41.904C365.036 40.9653 363.286 40.496 361.409 40.496C359.574 40.496 357.825 40.9653 356.161 41.904C354.54 42.8427 353.217 44.208 352.193 46C351.212 47.792 350.721 49.904 350.721 52.336C350.721 54.768 351.212 56.9013 352.193 58.736C353.217 60.528 354.54 61.8933 356.161 62.832C357.825 63.7707 359.574 64.24 361.409 64.24C363.286 64.24 365.036 63.7707 366.657 62.832C368.321 61.8507 369.644 60.4427 370.625 58.608C371.649 56.7733 372.161 54.64 372.161 52.208ZM394.096 39.92C395.333 38.2987 397.019 36.9333 399.152 35.824C401.285 34.7147 403.696 34.16 406.384 34.16C409.456 34.16 412.251 34.928 414.768 36.464C417.328 37.9573 419.333 40.0693 420.784 42.8C422.235 45.5307 422.96 48.6667 422.96 52.208C422.96 55.7493 422.235 58.928 420.784 61.744C419.333 64.5173 417.328 66.6933 414.768 68.272C412.251 69.808 409.456 70.576 406.384 70.576C403.696 70.576 401.307 70.0427 399.216 68.976C397.125 67.8667 395.419 66.5013 394.096 64.88V86.768H386.8V34.736H394.096V39.92ZM415.536 52.208C415.536 49.776 415.024 47.6853 414 45.936C413.019 44.144 411.696 42.8 410.032 41.904C408.411 40.9653 406.661 40.496 404.784 40.496C402.949 40.496 401.2 40.9653 399.536 41.904C397.915 42.8427 396.592 44.208 395.568 46C394.587 47.792 394.096 49.904 394.096 52.336C394.096 54.768 394.587 56.9013 395.568 58.736C396.592 60.528 397.915 61.8933 399.536 62.832C401.2 63.7707 402.949 64.24 404.784 64.24C406.661 64.24 408.411 63.7707 410.032 62.832C411.696 61.8507 413.019 60.4427 414 58.608C415.024 56.7733 415.536 54.64 415.536 52.208ZM442.975 70.576C440.202 70.576 437.706 70.0853 435.487 69.104C433.311 68.08 431.583 66.7147 430.303 65.008C429.023 63.2587 428.34 61.3173 428.255 59.184H435.807C435.935 60.6773 436.639 61.936 437.919 62.96C439.242 63.9413 440.884 64.432 442.847 64.432C444.895 64.432 446.474 64.048 447.583 63.28C448.735 62.4693 449.311 61.4453 449.311 60.208C449.311 58.8853 448.671 57.904 447.391 57.264C446.154 56.624 444.17 55.92 441.439 55.152C438.794 54.4267 436.639 53.7227 434.975 53.04C433.311 52.3573 431.86 51.312 430.623 49.904C429.428 48.496 428.831 46.64 428.831 44.336C428.831 42.4587 429.386 40.752 430.495 39.216C431.604 37.6373 433.183 36.4 435.231 35.504C437.322 34.608 439.711 34.16 442.399 34.16C446.41 34.16 449.631 35.184 452.063 37.232C454.538 39.2373 455.86 41.9893 456.031 45.488H448.735C448.607 43.9093 447.967 42.6507 446.815 41.712C445.663 40.7733 444.106 40.304 442.143 40.304C440.223 40.304 438.751 40.6667 437.727 41.392C436.703 42.1173 436.191 43.0773 436.191 44.272C436.191 45.2107 436.532 46 437.215 46.64C437.898 47.28 438.73 47.792 439.711 48.176C440.692 48.5173 442.143 48.9653 444.063 49.52C446.623 50.2027 448.714 50.9067 450.335 51.632C451.999 52.3147 453.428 53.3387 454.623 54.704C455.818 56.0693 456.436 57.8827 456.479 60.144C456.479 62.1493 455.924 63.9413 454.815 65.52C453.706 67.0987 452.127 68.336 450.079 69.232C448.074 70.128 445.706 70.576 442.975 70.576Z" fill="white"/>
</svg>
